<svg width="24" height="24" viewBox="0 0 24 24" fill="none" xmlns="http://www.w3.org/2000/svg">
<path fill-rule="evenodd" clip-rule="evenodd" d="M7 8C6.73478 8 6.48043 8.10536 6.29289 8.29289C6.10536 8.48043 6 8.73478 6 9C6 9.26522 6.10536 9.51957 6.29289 9.70711C6.48043 9.89464 6.73478 10 7 10H17C17.2652 10 17.5196 9.89464 17.7071 9.70711C17.8946 9.51957 18 9.26522 18 9C18 8.73478 17.8946 8.48043 17.7071 8.29289C17.5196 8.10536 17.2652 8 17 8H7ZM7 11C6.73478 11 6.48043 11.1054 6.29289 11.2929C6.10536 11.4804 6 11.7348 6 12C6 12.2652 6.10536 12.5196 6.29289 12.7071C6.48043 12.8946 6.73478 13 7 13H13C13.2652 13 13.5196 12.8946 13.7071 12.7071C13.8946 12.5196 14 12.2652 14 12C14 11.7348 13.8946 11.4804 13.7071 11.2929C13.5196 11.1054 13.2652 11 13 11H7ZM6.934 2H17.066C17.952 2 18.716 2 19.328 2.082C19.983 2.17 20.612 2.369 21.121 2.879C21.631 3.389 21.83 4.017 21.918 4.672C22 5.284 22 6.048 22 6.934V13.066C22 13.952 22 14.716 21.918 15.328C21.83 15.983 21.631 16.612 21.121 17.121C20.611 17.631 19.983 17.83 19.328 17.918C18.716 18 17.952 18 17.066 18H15.054L12.984 21.312C12.8798 21.479 12.7347 21.6167 12.5626 21.7122C12.3905 21.8076 12.1968 21.8577 12 21.8577C11.8032 21.8577 11.6095 21.8076 11.4374 21.7122C11.2653 21.6167 11.1202 21.479 11.016 21.312L8.946 18H6.934C6.048 18 5.284 18 4.672 17.918C4.017 17.83 3.388 17.631 2.879 17.121C2.369 16.611 2.17 15.983 2.082 15.328C2 14.716 2 13.952 2 13.066V6.934C2 6.048 2 5.284 2.082 4.672C2.17 4.017 2.369 3.388 2.879 2.879C3.389 2.369 4.017 2.17 4.672 2.082C5.284 2 6.048 2 6.934 2Z" fill="black" fill-opacity="0.5"/>
</svg>
