<svg width="24" height="24" viewBox="0 0 24 24" fill="none" xmlns="http://www.w3.org/2000/svg">
<path fill-rule="evenodd" clip-rule="evenodd" d="M5 2C4.20435 2 3.44129 2.31607 2.87868 2.87868C2.31607 3.44129 2 4.20435 2 5V19C2 19.7956 2.31607 20.5587 2.87868 21.1213C3.44129 21.6839 4.20435 22 5 22H17C17.7956 22 18.5587 21.6839 19.1213 21.1213C19.6839 20.5587 20 19.7956 20 19V5C20 4.20435 19.6839 3.44129 19.1213 2.87868C18.5587 2.31607 17.7956 2 17 2H5ZM11 8C9.93913 8 8.92172 8.42143 8.17157 9.17157C7.42143 9.92172 7 10.9391 7 12C7 13.0609 7.42143 14.0783 8.17157 14.8284C8.92172 15.5786 9.93913 16 11 16C12.0609 16 13.0783 15.5786 13.8284 14.8284C14.5786 14.0783 15 13.0609 15 12C15 10.9391 14.5786 9.92172 13.8284 9.17157C13.0783 8.42143 12.0609 8 11 8ZM8.346 19.682C8.733 19.267 9.424 19 11 19C12.615 19 13.3 19.261 13.68 19.675C13.8616 19.86 14.1079 19.9672 14.367 19.974C14.6261 19.9809 14.8778 19.8869 15.069 19.7118C15.2601 19.5368 15.3758 19.2943 15.3917 19.0356C15.4075 18.7769 15.3223 18.5221 15.154 18.325C14.161 17.24 12.692 17 11 17C9.319 17 7.872 17.257 6.883 18.318C6.79344 18.4141 6.72367 18.5268 6.67769 18.6498C6.63171 18.7729 6.61041 18.9037 6.615 19.035C6.6196 19.1663 6.65001 19.2953 6.70448 19.4148C6.75896 19.5343 6.83644 19.6419 6.9325 19.7315C7.02856 19.8211 7.14132 19.8908 7.26435 19.9368C7.38737 19.9828 7.51825 20.0041 7.6495 19.9995C7.78076 19.9949 7.90982 19.9645 8.02933 19.91C8.14883 19.8555 8.25644 19.7781 8.346 19.682Z" fill="black" fill-opacity="0.5"/>
<path fill-rule="evenodd" clip-rule="evenodd" d="M9 12C9 11.4696 9.21071 10.9609 9.58579 10.5858C9.96086 10.2107 10.4696 10 11 10C11.5304 10 12.0391 10.2107 12.4142 10.5858C12.7893 10.9609 13 11.4696 13 12C13 12.5304 12.7893 13.0391 12.4142 13.4142C12.0391 13.7893 11.5304 14 11 14C10.4696 14 9.96086 13.7893 9.58579 13.4142C9.21071 13.0391 9 12.5304 9 12ZM19.646 22H20C20.7956 22 21.5587 21.6839 22.1213 21.1213C22.6839 20.5587 23 19.7956 23 19V5C23 4.20435 22.6839 3.44129 22.1213 2.87868C21.5587 2.31607 20.7956 2 20 2H19.646C20.0721 2.37498 20.4133 2.83654 20.6468 3.35388C20.8802 3.87122 21.0007 4.43241 21 5V19C21.0007 19.5676 20.8802 20.1288 20.6468 20.6461C20.4133 21.1635 20.0721 21.625 19.646 22Z" fill="black" fill-opacity="0.5"/>
</svg>
