<svg width="34" height="34" viewBox="0 0 34 34" fill="none" xmlns="http://www.w3.org/2000/svg">
<path d="M24.1758 3.10828C24.7479 3.10835 25.2119 3.57223 25.2119 4.14441C25.2119 4.71659 24.7479 5.18047 24.1758 5.18054H24.0381C22.4611 5.18054 21.361 5.18185 20.5166 5.27332C19.6918 5.36268 19.2341 5.52835 18.8955 5.77429C18.6316 5.966 18.3987 6.19794 18.207 6.46179C17.9611 6.80038 17.7964 7.25821 17.707 8.08289C17.6171 8.91314 17.6143 9.99035 17.6143 11.5253L20.6582 11.12C22.2634 10.906 23.5489 10.7329 24.5811 10.7059C25.629 10.6785 26.5508 10.7945 27.3828 11.2567C28.0251 11.6136 28.5838 12.1037 29.0225 12.6932C29.5905 13.4568 29.8272 14.355 29.9385 15.3973C30.0481 16.4241 30.0469 17.7212 30.0469 19.3407C30.0469 20.9602 30.0481 22.2573 29.9385 23.2841C29.8271 24.3264 29.5905 25.2246 29.0225 25.9882C28.5838 26.5777 28.0251 27.0678 27.3828 27.4247C26.5508 27.8869 25.629 28.0019 24.5811 27.9745C23.5489 27.9475 22.2634 27.7744 20.6582 27.5604L17.4268 27.1298C16.9689 27.0687 16.8125 27.0498 16.6602 27.0458C16.6053 27.0443 16.55 27.0443 16.4951 27.0458C16.3428 27.0498 16.1862 27.0687 15.7285 27.1298L12.4971 27.5604C10.892 27.7744 9.60639 27.9475 8.57422 27.9745C7.52651 28.0019 6.60527 27.8866 5.77344 27.4247C5.13099 27.0678 4.57154 26.5778 4.13281 25.9882C3.56471 25.2246 3.32813 24.3264 3.2168 23.2841C3.10714 22.2573 3.1084 20.9602 3.1084 19.3407C3.1084 17.7212 3.10716 16.4241 3.2168 15.3973C3.32812 14.3549 3.5647 13.4569 4.13281 12.6932C4.57156 12.1035 5.13092 11.6137 5.77344 11.2567C6.6053 10.7947 7.52646 10.6785 8.57422 10.7059C9.60637 10.7329 10.892 10.906 12.4971 11.12L15.542 11.5253C15.542 10.031 15.542 8.82518 15.6465 7.86023C15.755 6.8589 15.9858 5.99478 16.5312 5.24402C16.8507 4.8043 17.237 4.41703 17.6768 4.09753C18.4274 3.55218 19.2918 3.32225 20.293 3.21375C21.2749 3.10737 22.5072 3.10828 24.0381 3.10828H24.1758ZM24.6357 12.7782C23.7399 12.8016 22.5825 12.9546 20.9316 13.1747L16.7148 13.7362C16.624 13.7483 16.5313 13.7483 16.4404 13.7362L12.2236 13.1747C10.573 12.9546 9.41629 12.8017 8.52051 12.7782C7.64044 12.7552 7.14713 12.8639 6.7793 13.0682C6.39382 13.2824 6.05815 13.5767 5.79492 13.9305C5.54392 14.2681 5.37081 14.742 5.27734 15.6171C5.18218 16.5081 5.18066 17.6751 5.18066 19.3407C5.18066 21.0062 5.18218 22.1733 5.27734 23.0643C5.37083 23.9394 5.54387 24.4133 5.79492 24.7509C6.05817 25.1047 6.39378 25.399 6.7793 25.6132C7.14713 25.8175 7.64046 25.9262 8.52051 25.9032C9.41628 25.8797 10.573 25.7268 12.2236 25.5067L15.4551 25.076C15.8718 25.0205 16.1532 24.9811 16.4404 24.9735C16.5318 24.9711 16.6234 24.9711 16.7148 24.9735C17.002 24.9811 17.2836 25.0205 17.7002 25.076L20.9316 25.5067C22.5825 25.7268 23.7399 25.8798 24.6357 25.9032C25.5154 25.9262 26.0082 25.8174 26.376 25.6132C26.7615 25.399 27.0971 25.1047 27.3604 24.7509C27.6114 24.4133 27.7844 23.9394 27.8779 23.0643C27.9731 22.1733 27.9746 21.0062 27.9746 19.3407C27.9746 17.6751 27.9731 16.5081 27.8779 15.6171C27.7845 14.742 27.6114 14.2681 27.3604 13.9305C27.0971 13.5767 26.7615 13.2824 26.376 13.0682C26.0082 12.8639 25.5155 12.7552 24.6357 12.7782ZM11.0518 16.2323C11.6239 16.2324 12.0879 16.6963 12.0879 17.2684V18.3046H13.124L13.2305 18.3094C13.7527 18.3628 14.1602 18.8044 14.1602 19.3407C14.1601 19.8769 13.7526 20.3176 13.2305 20.371L13.124 20.3768H12.0879V21.413C12.0878 21.985 11.6238 22.449 11.0518 22.4491C10.4797 22.449 10.0157 21.985 10.0156 21.413V20.3768H8.97949C8.4074 20.3767 7.94344 19.9128 7.94336 19.3407C7.94336 18.7685 8.40735 18.3047 8.97949 18.3046H10.0156V17.2684C10.0156 16.6962 10.4796 16.2324 11.0518 16.2323ZM22.1035 20.3768C22.6757 20.3769 23.1396 20.8408 23.1396 21.413C23.1395 21.9851 22.6756 22.4491 22.1035 22.4491C21.5314 22.4491 21.0675 21.9851 21.0674 21.413C21.0674 20.8407 21.5313 20.3768 22.1035 20.3768ZM20.0312 18.3046C20.6035 18.3046 21.0674 18.7685 21.0674 19.3407C21.0673 19.9128 20.6034 20.3768 20.0312 20.3768C19.4591 20.3768 18.9952 19.9128 18.9951 19.3407C18.9951 18.7685 19.459 18.3046 20.0312 18.3046ZM24.1758 18.3046C24.748 18.3046 25.2119 18.7685 25.2119 19.3407C25.2118 19.9128 24.7479 20.3768 24.1758 20.3768C23.6036 20.3768 23.1397 19.9128 23.1396 19.3407C23.1396 18.7685 23.6036 18.3046 24.1758 18.3046ZM22.1035 16.2323C22.6757 16.2323 23.1396 16.6962 23.1396 17.2684C23.1396 17.8406 22.6757 18.3045 22.1035 18.3046C21.5313 18.3046 21.0674 17.8406 21.0674 17.2684C21.0674 16.6962 21.5313 16.2323 22.1035 16.2323Z" fill="#1C1D1D"/>
</svg>
