<svg width="83" height="86" viewBox="0 0 83 86" fill="none" xmlns="http://www.w3.org/2000/svg">
<path d="M82.2762 39.0567L76.9428 33.7233C76.8191 33.5995 76.6721 33.5013 76.5103 33.4342C76.3486 33.3672 76.1752 33.3327 76.0001 33.3327C75.825 33.3327 75.6517 33.3672 75.4899 33.4342C75.3282 33.5013 75.1812 33.5995 75.0574 33.7233L69.7241 39.0567C69.6002 39.1804 69.502 39.3274 69.435 39.4891C69.368 39.6509 69.3335 39.8242 69.3335 39.9993V53.3327C69.3335 53.5078 69.3679 53.6812 69.4349 53.843C69.5019 54.0048 69.6001 54.1518 69.7239 54.2756C69.8477 54.3994 69.9947 54.4976 70.1565 54.5646C70.3183 54.6316 70.4917 54.666 70.6668 54.666H81.3335C81.5086 54.666 81.682 54.6316 81.8438 54.5646C82.0056 54.4976 82.1526 54.3994 82.2764 54.2756C82.4002 54.1518 82.4984 54.0048 82.5654 53.843C82.6324 53.6812 82.6669 53.5078 82.6668 53.3327V39.9993C82.6668 39.8242 82.6323 39.6509 82.5653 39.4891C82.4983 39.3274 82.4 39.1804 82.2762 39.0567Z" fill="white"/>
<path d="M58.6668 22.666H18.6668C18.4917 22.666 18.3183 22.7004 18.1565 22.7674C17.9947 22.8344 17.8477 22.9326 17.7239 23.0564C17.6001 23.1803 17.5019 23.3273 17.4349 23.489C17.3679 23.6508 17.3335 23.8242 17.3335 23.9993V43.9993C17.3334 44.2531 17.4058 44.5016 17.5421 44.7157C17.6785 44.9297 17.873 45.1004 18.103 45.2077L38.103 54.541C38.2796 54.6234 38.472 54.666 38.6668 54.666C38.8616 54.666 39.0541 54.6234 39.2306 54.541L59.2306 45.2077C59.4606 45.1004 59.6552 44.9297 59.7915 44.7157C59.9278 44.5016 60.0002 44.2531 60.0002 43.9993V23.9993C60.0002 23.8242 59.9658 23.6508 59.8988 23.489C59.8318 23.3273 59.7336 23.1803 59.6097 23.0564C59.4859 22.9326 59.3389 22.8344 59.1771 22.7674C59.0153 22.7004 58.8419 22.666 58.6668 22.666Z" fill="white"/>
<path d="M58.6668 22.666H18.6668C18.4917 22.666 18.3183 22.7004 18.1565 22.7674C17.9947 22.8344 17.8477 22.9326 17.7239 23.0564C17.6001 23.1803 17.5019 23.3273 17.4349 23.489C17.3679 23.6508 17.3335 23.8242 17.3335 23.9993V36.849L38.103 46.541C38.2796 46.6234 38.472 46.666 38.6668 46.666C38.8616 46.666 39.0541 46.6234 39.2306 46.541L60.0002 36.8489V23.9993C60.0002 23.8242 59.9658 23.6508 59.8988 23.489C59.8318 23.3273 59.7336 23.1803 59.6097 23.0564C59.4859 22.9326 59.3389 22.8344 59.1771 22.7674C59.0153 22.7004 58.8419 22.666 58.6668 22.666Z" fill="white"/>
<path d="M76.5612 17.4564L39.2279 0.123044C39.0519 0.0419774 38.8604 0 38.6667 0C38.4729 0 38.2815 0.0419774 38.1055 0.123044L0.772138 17.4564C0.541511 17.5634 0.346292 17.7342 0.209488 17.9485C0.072685 18.1628 0 18.4118 0 18.666C0 18.9203 0.072685 19.1692 0.209488 19.3836C0.346292 19.5979 0.541511 19.7686 0.772138 19.8757L38.1055 37.209C38.2813 37.2905 38.4728 37.3327 38.6667 37.3327C38.8605 37.3327 39.052 37.2905 39.2279 37.209L76.5612 19.8757C76.7918 19.7686 76.9871 19.5979 77.1239 19.3836C77.2607 19.1692 77.3333 18.9203 77.3333 18.666C77.3333 18.4118 77.2607 18.1628 77.1239 17.9485C76.9871 17.7342 76.7918 17.5634 76.5612 17.4564Z" fill="white"/>
<path d="M76.0002 30.666C75.8251 30.6661 75.6517 30.6316 75.4899 30.5646C75.3281 30.4976 75.1811 30.3994 75.0573 30.2756C74.9334 30.1518 74.8352 30.0048 74.7682 29.843C74.7012 29.6812 74.6668 29.5078 74.6668 29.3327V19.9994H38.6668C38.3132 19.9994 37.9741 19.8589 37.724 19.6088C37.474 19.3588 37.3335 19.0197 37.3335 18.666C37.3335 18.3124 37.474 17.9733 37.724 17.7232C37.9741 17.4732 38.3132 17.3327 38.6668 17.3327H76.0002C76.1753 17.3327 76.3487 17.3671 76.5105 17.4341C76.6723 17.5011 76.8193 17.5993 76.9431 17.7231C77.0669 17.8469 77.1651 17.9939 77.2321 18.1557C77.2991 18.3175 77.3335 18.4909 77.3335 18.666V29.3327C77.3335 29.5078 77.2991 29.6812 77.2321 29.843C77.1651 30.0048 77.0669 30.1518 76.9431 30.2756C76.8193 30.3994 76.6723 30.4976 76.5105 30.5646C76.3487 30.6316 76.1753 30.6661 76.0002 30.666Z" fill="white"/>
<path d="M75.9998 38.666C78.9454 38.666 81.3332 36.2782 81.3332 33.3327C81.3332 30.3871 78.9454 27.9993 75.9998 27.9993C73.0543 27.9993 70.6665 30.3871 70.6665 33.3327C70.6665 36.2782 73.0543 38.666 75.9998 38.666Z" fill="white"/>
<path d="M65.0308 79.9525C63.2449 79.4655 61.3335 75.0814 61.3335 69.3327C61.3335 63.584 63.2449 59.1999 65.0308 58.7129C65.3589 58.6233 65.6404 58.4118 65.8177 58.1215C65.995 57.8313 66.0547 57.4842 65.9846 57.1514C65.9145 56.8186 65.7199 56.5252 65.4406 56.3311C65.1613 56.137 64.8184 56.057 64.482 56.1074L38.6668 59.985L12.8433 56.1061L12.1896 56.0124C12.1269 56.0035 12.0635 55.9991 12.0002 55.9993C8.19938 55.9993 5.3335 61.7311 5.3335 69.3327C5.3335 76.9342 8.19938 82.666 12.0002 82.666C12.0635 82.6662 12.1269 82.6619 12.1896 82.653L38.6668 78.6803L64.4819 82.558C64.8183 82.6084 65.1612 82.5284 65.4405 82.3343C65.7198 82.1402 65.9144 81.8468 65.9845 81.514C66.0546 81.1812 65.9949 80.8341 65.8177 80.5439C65.6404 80.2536 65.3589 80.042 65.0308 79.9525Z" fill="white"/>
<path d="M43.9998 57.3327H33.3332C32.6262 57.3335 31.9484 57.6147 31.4484 58.1146C30.9485 58.6146 30.6673 59.2924 30.6665 59.9994V83.9994C30.6665 84.2173 30.72 84.4319 30.8221 84.6244C30.9243 84.8168 31.072 84.9814 31.2525 85.1036C31.4329 85.2257 31.6405 85.3018 31.8572 85.3252C32.0738 85.3486 32.2929 85.3185 32.4953 85.2376L38.6665 82.7689L44.8377 85.2376C45.0401 85.3185 45.2592 85.3486 45.4758 85.3252C45.6925 85.3018 45.9001 85.2257 46.0805 85.1036C46.261 84.9814 46.4087 84.8168 46.5109 84.6244C46.613 84.4319 46.6665 84.2173 46.6665 83.9994V59.9994C46.6657 59.2924 46.3845 58.6146 45.8846 58.1146C45.3846 57.6147 44.7068 57.3335 43.9998 57.3327Z" fill="white"/>
<path d="M65.3332 55.9993C65.2698 55.9991 65.2065 56.0035 65.1437 56.0124L64.4901 56.1061C64.4356 56.1141 64.3817 56.1254 64.3286 56.14C60.9946 57.0501 58.6665 62.4746 58.6665 69.3327C58.6665 76.1907 60.9946 81.6152 64.3286 82.5254C64.3817 82.5399 64.4356 82.5512 64.4901 82.5592L65.1437 82.653C65.2065 82.6619 65.2698 82.6662 65.3332 82.666C69.134 82.666 71.9998 76.9342 71.9998 69.3327C71.9998 61.7311 69.134 55.9993 65.3332 55.9993Z" fill="white"/>
<path d="M62.6665 67.9993H58.6977C58.6779 68.4373 58.6665 68.8814 58.6665 69.3327C58.6665 76.1907 60.9946 81.6152 64.3286 82.5254C64.3817 82.5399 64.4356 82.5512 64.4901 82.5592L65.1437 82.653C65.2065 82.6618 65.2698 82.6662 65.3332 82.666C65.789 82.6643 66.2407 82.5802 66.6665 82.4176V71.9993C66.6653 70.9388 66.2435 69.9221 65.4937 69.1722C64.7438 68.4223 63.727 68.0005 62.6665 67.9993Z" fill="white"/>
</svg>
