<svg width="106" height="106" viewBox="0 0 106 106" fill="none" xmlns="http://www.w3.org/2000/svg">
<g filter="url(#filter0_d_1_577)">
<path d="M91.4048 14.8042C91.4048 14.141 91.9424 13.6034 92.6056 13.6034H99.6026C100.266 13.6034 100.803 14.141 100.803 14.8042V99.9646C100.803 100.097 100.696 100.205 100.563 100.205H91.6449C91.5123 100.205 91.4048 100.097 91.4048 99.9646V14.8042Z" fill="url(#paint0_linear_1_577)"/>
<path d="M92.606 13.7235H99.603C100.2 13.7237 100.683 14.2079 100.683 14.8046V99.9647C100.683 100.031 100.629 100.085 100.563 100.085H91.645C91.5787 100.085 91.5249 100.031 91.5249 99.9647V14.8046C91.5249 14.2077 92.0091 13.7235 92.606 13.7235Z" stroke="url(#paint1_linear_1_577)" stroke-width="0.240155"/>
</g>
<g filter="url(#filter1_d_1_577)">
<path d="M78.3135 53.7412C78.3135 53.078 78.8511 52.5404 79.5142 52.5404H86.5113C87.1745 52.5404 87.7121 53.078 87.7121 53.7412V99.9646C87.7121 100.097 87.6046 100.205 87.4719 100.205H78.5536C78.421 100.205 78.3135 100.097 78.3135 99.9646V53.7412Z" fill="url(#paint2_linear_1_577)"/>
<path d="M79.5146 52.6605H86.5117C87.1084 52.6607 87.5918 53.1449 87.5918 53.7416V99.9642C87.5918 100.031 87.538 100.084 87.4717 100.084H78.5537C78.4874 100.084 78.4336 100.031 78.4336 99.9642V53.7416C78.4336 53.1447 78.9178 52.6605 79.5146 52.6605Z" stroke="url(#paint3_linear_1_577)" stroke-width="0.240155"/>
</g>
<g filter="url(#filter2_d_1_577)">
<path d="M65.2227 77.5733C65.2227 76.9102 65.7603 76.3726 66.4234 76.3726H73.4205C74.0837 76.3726 74.6213 76.9102 74.6213 77.5733V99.9646C74.6213 100.097 74.5137 100.205 74.3811 100.205H65.4628C65.3302 100.205 65.2227 100.097 65.2227 99.9646V77.5733Z" fill="url(#paint4_linear_1_577)"/>
<path d="M66.4238 76.4927H73.4209C74.0176 76.4929 74.501 76.977 74.501 77.5737V99.9644C74.501 100.031 74.4472 100.084 74.3809 100.084H65.4629C65.3966 100.084 65.3428 100.031 65.3428 99.9644V77.5737C65.3428 76.9769 65.827 76.4927 66.4238 76.4927Z" stroke="url(#paint5_linear_1_577)" stroke-width="0.240155"/>
</g>
<g filter="url(#filter3_d_1_577)">
<path d="M52.1318 64.8181C52.1318 64.1549 52.6694 63.6173 53.3326 63.6173H60.3297C60.9928 63.6173 61.5304 64.1549 61.5304 64.8181V99.9646C61.5304 100.097 61.4229 100.205 61.2903 100.205H52.372C52.2394 100.205 52.1318 100.097 52.1318 99.9646V64.8181Z" fill="url(#paint6_linear_1_577)"/>
<path d="M53.333 63.7374H60.3301C60.9267 63.7377 61.4102 64.2218 61.4102 64.8185V99.965C61.4099 100.031 61.3562 100.085 61.29 100.085H52.3721C52.3059 100.085 52.2522 100.031 52.252 99.965V64.8185C52.252 64.2216 52.7362 63.7374 53.333 63.7374Z" stroke="url(#paint7_linear_1_577)" stroke-width="0.240155"/>
</g>
<g filter="url(#filter4_d_1_577)">
<path d="M39.041 87.3076C39.041 86.6444 39.5786 86.1068 40.2418 86.1068H47.2388C47.902 86.1068 48.4396 86.6444 48.4396 87.3076V99.9646C48.4396 100.097 48.3321 100.205 48.1995 100.205H39.2812C39.1485 100.205 39.041 100.097 39.041 99.9646V87.3076Z" fill="url(#paint8_linear_1_577)"/>
<path d="M40.2422 86.2269H47.2393C47.8359 86.2272 48.3193 86.7113 48.3193 87.308V99.9642C48.3193 100.031 48.2655 100.084 48.1992 100.084H39.2812C39.2149 100.084 39.1611 100.031 39.1611 99.9642V87.308C39.1611 86.7111 39.6453 86.2269 40.2422 86.2269Z" stroke="url(#paint9_linear_1_577)" stroke-width="0.240155"/>
</g>
<g filter="url(#filter5_d_1_577)">
<mask id="path-11-inside-1_1_577" fill="white">
<path d="M56.9983 33.1447C55.8438 27.3282 52.7611 22.0712 48.2487 18.2238C43.7363 14.3764 38.058 12.1636 32.1321 11.9433C26.2063 11.7229 20.3793 13.5078 15.5936 17.0094C10.8078 20.511 7.34317 25.5245 5.75984 31.2392C4.17652 36.9539 4.56711 43.0356 6.86847 48.5007C9.16983 53.9659 13.2474 58.495 18.4417 61.3557C23.6361 64.2163 29.6435 65.2412 35.4925 64.2645C41.3414 63.2879 46.69 60.3669 50.6732 55.9739L31.1529 38.2747L56.9983 33.1447Z"/>
</mask>
<path d="M56.9983 33.1447C55.8438 27.3282 52.7611 22.0712 48.2487 18.2238C43.7363 14.3764 38.058 12.1636 32.1321 11.9433C26.2063 11.7229 20.3793 13.5078 15.5936 17.0094C10.8078 20.511 7.34317 25.5245 5.75984 31.2392C4.17652 36.9539 4.56711 43.0356 6.86847 48.5007C9.16983 53.9659 13.2474 58.495 18.4417 61.3557C23.6361 64.2163 29.6435 65.2412 35.4925 64.2645C41.3414 63.2879 46.69 60.3669 50.6732 55.9739L31.1529 38.2747L56.9983 33.1447Z" fill="url(#paint10_linear_1_577)"/>
<path d="M56.9983 33.1447C55.8438 27.3282 52.7611 22.0712 48.2487 18.2238C43.7363 14.3764 38.058 12.1636 32.1321 11.9433C26.2063 11.7229 20.3793 13.5078 15.5936 17.0094C10.8078 20.511 7.34317 25.5245 5.75984 31.2392C4.17652 36.9539 4.56711 43.0356 6.86847 48.5007C9.16983 53.9659 13.2474 58.495 18.4417 61.3557C23.6361 64.2163 29.6435 65.2412 35.4925 64.2645C41.3414 63.2879 46.69 60.3669 50.6732 55.9739L31.1529 38.2747L56.9983 33.1447Z" stroke="url(#paint11_linear_1_577)" stroke-width="0.480309" mask="url(#path-11-inside-1_1_577)"/>
</g>
<g filter="url(#filter6_d_1_577)">
<path d="M65.3648 38.1068C66.028 38.1068 66.5677 37.569 66.5451 36.9062C66.4013 32.6874 65.5006 28.5252 63.8827 24.6192C62.1115 20.3431 59.5154 16.4578 56.2426 13.185C52.9698 9.91223 49.0845 7.31612 44.8084 5.54491C40.9024 3.92699 36.7402 3.0263 32.5214 2.88251C31.8586 2.85992 31.3208 3.39966 31.3208 4.06283L31.3208 38.1068H65.3648Z" fill="url(#paint12_linear_1_577)"/>
<path d="M32.5171 3.00269C36.7215 3.14598 40.8696 4.04364 44.7622 5.65601C49.0237 7.42119 52.8961 10.0086 56.1577 13.2703C59.4192 16.5318 62.0068 20.4035 63.772 24.6648C65.3843 28.5574 66.2819 32.7056 66.4253 36.9099C66.4455 37.5021 65.9627 37.9871 65.3647 37.9871H31.4409V4.06323C31.4409 3.46532 31.925 2.98261 32.5171 3.00269Z" stroke="url(#paint13_linear_1_577)" stroke-width="0.240155"/>
</g>
<defs>
<filter id="filter0_d_1_577" x="88.5229" y="11.442" width="16.6031" height="93.8061" filterUnits="userSpaceOnUse" color-interpolation-filters="sRGB">
<feFlood flood-opacity="0" result="BackgroundImageFix"/>
<feColorMatrix in="SourceAlpha" type="matrix" values="0 0 0 0 0 0 0 0 0 0 0 0 0 0 0 0 0 0 127 0" result="hardAlpha"/>
<feOffset dx="0.720464" dy="1.44093"/>
<feGaussianBlur stdDeviation="1.80116"/>
<feComposite in2="hardAlpha" operator="out"/>
<feColorMatrix type="matrix" values="0 0 0 0 0.462745 0 0 0 0 0.556863 0 0 0 0 0.690196 0 0 0 0.25 0"/>
<feBlend mode="normal" in2="BackgroundImageFix" result="effect1_dropShadow_1_577"/>
<feBlend mode="normal" in="SourceGraphic" in2="effect1_dropShadow_1_577" result="shape"/>
</filter>
<filter id="filter1_d_1_577" x="75.4316" y="50.379" width="16.6031" height="54.8689" filterUnits="userSpaceOnUse" color-interpolation-filters="sRGB">
<feFlood flood-opacity="0" result="BackgroundImageFix"/>
<feColorMatrix in="SourceAlpha" type="matrix" values="0 0 0 0 0 0 0 0 0 0 0 0 0 0 0 0 0 0 127 0" result="hardAlpha"/>
<feOffset dx="0.720464" dy="1.44093"/>
<feGaussianBlur stdDeviation="1.80116"/>
<feComposite in2="hardAlpha" operator="out"/>
<feColorMatrix type="matrix" values="0 0 0 0 0.462745 0 0 0 0 0.556863 0 0 0 0 0.690196 0 0 0 0.25 0"/>
<feBlend mode="normal" in2="BackgroundImageFix" result="effect1_dropShadow_1_577"/>
<feBlend mode="normal" in="SourceGraphic" in2="effect1_dropShadow_1_577" result="shape"/>
</filter>
<filter id="filter2_d_1_577" x="62.3408" y="74.2112" width="16.6031" height="31.0368" filterUnits="userSpaceOnUse" color-interpolation-filters="sRGB">
<feFlood flood-opacity="0" result="BackgroundImageFix"/>
<feColorMatrix in="SourceAlpha" type="matrix" values="0 0 0 0 0 0 0 0 0 0 0 0 0 0 0 0 0 0 127 0" result="hardAlpha"/>
<feOffset dx="0.720464" dy="1.44093"/>
<feGaussianBlur stdDeviation="1.80116"/>
<feComposite in2="hardAlpha" operator="out"/>
<feColorMatrix type="matrix" values="0 0 0 0 0.462745 0 0 0 0 0.556863 0 0 0 0 0.690196 0 0 0 0.25 0"/>
<feBlend mode="normal" in2="BackgroundImageFix" result="effect1_dropShadow_1_577"/>
<feBlend mode="normal" in="SourceGraphic" in2="effect1_dropShadow_1_577" result="shape"/>
</filter>
<filter id="filter3_d_1_577" x="49.25" y="61.4559" width="16.6031" height="43.792" filterUnits="userSpaceOnUse" color-interpolation-filters="sRGB">
<feFlood flood-opacity="0" result="BackgroundImageFix"/>
<feColorMatrix in="SourceAlpha" type="matrix" values="0 0 0 0 0 0 0 0 0 0 0 0 0 0 0 0 0 0 127 0" result="hardAlpha"/>
<feOffset dx="0.720464" dy="1.44093"/>
<feGaussianBlur stdDeviation="1.80116"/>
<feComposite in2="hardAlpha" operator="out"/>
<feColorMatrix type="matrix" values="0 0 0 0 0.462745 0 0 0 0 0.556863 0 0 0 0 0.690196 0 0 0 0.25 0"/>
<feBlend mode="normal" in2="BackgroundImageFix" result="effect1_dropShadow_1_577"/>
<feBlend mode="normal" in="SourceGraphic" in2="effect1_dropShadow_1_577" result="shape"/>
</filter>
<filter id="filter4_d_1_577" x="36.1592" y="83.9454" width="16.6031" height="21.3025" filterUnits="userSpaceOnUse" color-interpolation-filters="sRGB">
<feFlood flood-opacity="0" result="BackgroundImageFix"/>
<feColorMatrix in="SourceAlpha" type="matrix" values="0 0 0 0 0 0 0 0 0 0 0 0 0 0 0 0 0 0 127 0" result="hardAlpha"/>
<feOffset dx="0.720464" dy="1.44093"/>
<feGaussianBlur stdDeviation="1.80116"/>
<feComposite in2="hardAlpha" operator="out"/>
<feColorMatrix type="matrix" values="0 0 0 0 0.462745 0 0 0 0 0.556863 0 0 0 0 0.690196 0 0 0 0.25 0"/>
<feBlend mode="normal" in2="BackgroundImageFix" result="effect1_dropShadow_1_577"/>
<feBlend mode="normal" in="SourceGraphic" in2="effect1_dropShadow_1_577" result="shape"/>
</filter>
<filter id="filter5_d_1_577" x="0.000130653" y="9.5235" width="61.8015" height="62.3055" filterUnits="userSpaceOnUse" color-interpolation-filters="sRGB">
<feFlood flood-opacity="0" result="BackgroundImageFix"/>
<feColorMatrix in="SourceAlpha" type="matrix" values="0 0 0 0 0 0 0 0 0 0 0 0 0 0 0 0 0 0 127 0" result="hardAlpha"/>
<feOffset dy="2.40155"/>
<feGaussianBlur stdDeviation="2.40155"/>
<feComposite in2="hardAlpha" operator="out"/>
<feColorMatrix type="matrix" values="0 0 0 0 0.462745 0 0 0 0 0.556863 0 0 0 0 0.690196 0 0 0 0.25 0"/>
<feBlend mode="normal" in2="BackgroundImageFix" result="effect1_dropShadow_1_577"/>
<feBlend mode="normal" in="SourceGraphic" in2="effect1_dropShadow_1_577" result="shape"/>
</filter>
<filter id="filter6_d_1_577" x="27.4783" y="-1.93119e-05" width="42.4297" height="42.4296" filterUnits="userSpaceOnUse" color-interpolation-filters="sRGB">
<feFlood flood-opacity="0" result="BackgroundImageFix"/>
<feColorMatrix in="SourceAlpha" type="matrix" values="0 0 0 0 0 0 0 0 0 0 0 0 0 0 0 0 0 0 127 0" result="hardAlpha"/>
<feOffset dx="-0.240155" dy="0.720464"/>
<feGaussianBlur stdDeviation="1.80116"/>
<feComposite in2="hardAlpha" operator="out"/>
<feColorMatrix type="matrix" values="0 0 0 0 0.0925694 0 0 0 0 0.138983 0 0 0 0 0.258333 0 0 0 0.1 0"/>
<feBlend mode="normal" in2="BackgroundImageFix" result="effect1_dropShadow_1_577"/>
<feBlend mode="normal" in="SourceGraphic" in2="effect1_dropShadow_1_577" result="shape"/>
</filter>
<linearGradient id="paint0_linear_1_577" x1="96.1443" y1="-7.65331" x2="96.1442" y2="108.865" gradientUnits="userSpaceOnUse">
<stop stop-color="#43C6AC"/>
<stop offset="1" stop-color="#F8FFAE"/>
</linearGradient>
<linearGradient id="paint1_linear_1_577" x1="96.1443" y1="-7.65331" x2="96.1442" y2="108.865" gradientUnits="userSpaceOnUse">
<stop stop-color="#43C6AC"/>
<stop offset="1" stop-color="#F8FFAE"/>
</linearGradient>
<linearGradient id="paint2_linear_1_577" x1="83.0529" y1="40.841" x2="83.0529" y2="104.971" gradientUnits="userSpaceOnUse">
<stop stop-color="#43C6AC"/>
<stop offset="1" stop-color="#F8FFAE"/>
</linearGradient>
<linearGradient id="paint3_linear_1_577" x1="83.0529" y1="40.841" x2="83.0529" y2="104.971" gradientUnits="userSpaceOnUse">
<stop stop-color="#43C6AC"/>
<stop offset="1" stop-color="#F8FFAE"/>
</linearGradient>
<linearGradient id="paint4_linear_1_577" x1="69.9621" y1="70.5228" x2="69.9621" y2="102.588" gradientUnits="userSpaceOnUse">
<stop stop-color="#43C6AC"/>
<stop offset="1" stop-color="#F8FFAE"/>
</linearGradient>
<linearGradient id="paint5_linear_1_577" x1="69.9621" y1="70.5228" x2="69.9621" y2="102.588" gradientUnits="userSpaceOnUse">
<stop stop-color="#43C6AC"/>
<stop offset="1" stop-color="#F8FFAE"/>
</linearGradient>
<linearGradient id="paint6_linear_1_577" x1="56.8713" y1="54.6368" x2="56.8713" y2="103.863" gradientUnits="userSpaceOnUse">
<stop stop-color="#43C6AC"/>
<stop offset="1" stop-color="#F8FFAE"/>
</linearGradient>
<linearGradient id="paint7_linear_1_577" x1="56.8713" y1="54.6368" x2="56.8713" y2="103.863" gradientUnits="userSpaceOnUse">
<stop stop-color="#43C6AC"/>
<stop offset="1" stop-color="#F8FFAE"/>
</linearGradient>
<linearGradient id="paint8_linear_1_577" x1="43.7805" y1="82.6464" x2="43.7805" y2="101.615" gradientUnits="userSpaceOnUse">
<stop stop-color="#43C6AC"/>
<stop offset="1" stop-color="#F8FFAE"/>
</linearGradient>
<linearGradient id="paint9_linear_1_577" x1="43.7805" y1="82.6464" x2="43.7805" y2="101.615" gradientUnits="userSpaceOnUse">
<stop stop-color="#43C6AC"/>
<stop offset="1" stop-color="#F8FFAE"/>
</linearGradient>
<linearGradient id="paint10_linear_1_577" x1="31.3781" y1="-1.01023" x2="31.3781" y2="69.8943" gradientUnits="userSpaceOnUse">
<stop stop-color="#43C6AC"/>
<stop offset="1" stop-color="#F8FFAE"/>
</linearGradient>
<linearGradient id="paint11_linear_1_577" x1="31.3781" y1="-1.01023" x2="31.3781" y2="69.8943" gradientUnits="userSpaceOnUse">
<stop stop-color="#43C6AC"/>
<stop offset="1" stop-color="#F8FFAE"/>
</linearGradient>
<linearGradient id="paint12_linear_1_577" x1="49.0938" y1="-5.78893" x2="49.0938" y2="41.6313" gradientUnits="userSpaceOnUse">
<stop stop-color="#43C6AC"/>
<stop offset="1" stop-color="#F8FFAE"/>
</linearGradient>
<linearGradient id="paint13_linear_1_577" x1="49.0938" y1="-5.78893" x2="49.0938" y2="41.6313" gradientUnits="userSpaceOnUse">
<stop stop-color="#43C6AC"/>
<stop offset="1" stop-color="#F8FFAE"/>
</linearGradient>
</defs>
</svg>
