<svg width="283" height="326" viewBox="0 0 283 326" fill="none" xmlns="http://www.w3.org/2000/svg">
<path d="M217.622 277.79L216.09 275.954C216.987 275.206 217.874 274.451 218.73 273.706L220.302 275.511C219.431 276.267 218.545 277.029 217.622 277.79ZM222.931 273.167L221.329 271.395C222.181 270.61 223.04 269.821 223.862 269.027L225.514 270.756C224.667 271.562 223.803 272.373 222.918 273.173L222.931 273.167ZM228.023 268.287L226.323 266.603C227.142 265.779 227.95 264.941 228.729 264.113L230.473 265.749C229.678 266.592 228.855 267.449 228.023 268.287ZM232.849 263.137L231.056 261.551C231.812 260.691 232.578 259.803 233.303 258.927L235.143 260.456C234.403 261.351 233.639 262.25 232.857 263.153L232.849 263.137ZM237.361 257.694L235.469 256.228C236.195 255.305 236.877 254.378 237.538 253.463L239.486 254.868C238.802 255.798 238.09 256.754 237.361 257.694ZM241.495 251.949L239.504 250.626C240.14 249.667 240.768 248.69 241.359 247.717L243.4 248.967C242.79 249.964 242.151 250.966 241.495 251.949ZM245.186 245.909L243.095 244.745C243.653 243.742 244.194 242.72 244.704 241.705L246.842 242.781C246.321 243.821 245.76 244.876 245.186 245.909ZM248.368 239.583L246.185 238.601C246.656 237.553 247.108 236.488 247.528 235.43L249.755 236.318C249.32 237.402 248.854 238.502 248.368 239.583ZM250.986 232.984L248.721 232.206C249.093 231.12 249.445 230.017 249.763 228.929L252.061 229.598C251.731 230.723 251.368 231.862 250.986 232.984ZM252.976 226.165L250.651 225.605C250.904 224.497 251.147 223.367 251.391 222.238L253.739 222.683C253.504 223.847 253.252 225.016 252.976 226.165ZM254.309 219.19L251.941 218.851C252.102 217.729 252.237 216.58 252.346 215.436L254.728 215.665C254.615 216.842 254.475 218.027 254.309 219.19ZM254.967 212.126L252.593 212.006C252.647 210.868 252.677 209.711 252.678 208.567L255.071 208.571C255.065 209.755 255.033 210.948 254.967 212.126ZM254.984 205.03L252.594 205.13C252.545 203.995 252.472 202.843 252.375 201.695L254.76 201.493C254.871 202.669 254.955 203.854 254.997 205.024L254.984 205.03ZM254.383 197.973L252.007 198.271C251.864 197.14 251.709 195.985 251.508 194.862L253.868 194.467C254.08 195.62 254.253 196.798 254.402 197.964L254.383 197.973ZM253.219 190.986L250.876 191.469C250.65 190.359 250.397 189.226 250.121 188.1L252.448 187.535C252.746 188.682 253.023 189.834 253.238 190.977L253.219 190.986ZM251.545 184.114L249.244 184.76C248.936 183.664 248.596 182.552 248.258 181.444L250.541 180.726C250.921 181.842 251.259 182.985 251.564 184.09L251.545 184.114ZM249.43 177.38L247.172 178.167C246.791 177.075 246.389 175.985 245.98 174.921L248.211 174.061C248.652 175.126 249.061 176.239 249.449 177.355L249.43 177.38ZM246.879 170.78L244.677 171.719C244.24 170.695 243.784 169.673 243.32 168.681L243.265 168.564L245.431 167.549L245.486 167.666C245.983 168.662 246.451 169.71 246.9 170.759L246.879 170.78ZM241.735 165.464C241.207 164.444 240.653 163.426 240.092 162.433L242.172 161.25C242.75 162.27 243.318 163.317 243.859 164.365L241.735 165.464ZM238.324 159.476C237.717 158.501 237.078 157.533 236.435 156.598L238.407 155.242C239.071 156.206 239.714 157.206 240.347 158.196L238.324 159.476ZM234.422 153.81C233.731 152.894 233.009 151.988 232.283 151.115L234.12 149.586C234.874 150.485 235.616 151.42 236.329 152.364L234.422 153.81ZM230.019 148.533C229.24 147.693 228.439 146.859 227.63 146.064L229.308 144.359C230.146 145.183 230.977 146.041 231.779 146.913L230.019 148.533ZM225.123 143.72C224.269 142.961 223.383 142.217 222.496 141.509L223.992 139.649C224.909 140.378 225.828 141.153 226.714 141.939L225.123 143.72ZM219.757 139.439C218.827 138.773 217.869 138.129 216.924 137.513L218.21 135.493C219.203 136.129 220.195 136.796 221.16 137.487L219.757 139.439ZM213.971 135.752C212.979 135.193 211.958 134.656 210.937 134.149L211.998 132.003C213.056 132.531 214.117 133.088 215.146 133.668L213.971 135.752ZM207.821 132.708C206.773 132.26 205.699 131.832 204.631 131.44L205.455 129.192C206.567 129.603 207.677 130.044 208.775 130.507L207.821 132.708ZM201.404 130.333C200.316 129.996 199.205 129.686 198.098 129.409L198.683 127.088C199.831 127.377 200.982 127.699 202.111 128.047L201.404 130.333ZM194.745 128.658C193.627 128.44 192.488 128.244 191.359 128.085L191.695 125.718C192.866 125.884 194.049 126.084 195.206 126.31L194.745 128.658ZM163.97 142.649L162.11 141.152C162.719 140.323 163.182 139.397 163.481 138.413L165.747 139.178C165.354 140.425 164.752 141.597 163.967 142.642L163.97 142.649ZM159.898 144.537C158.699 144.392 157.456 143.726 156.211 142.56L157.845 140.813C158.7 141.614 159.508 142.078 160.183 142.159L159.898 144.537ZM187.933 127.697C186.796 127.596 185.643 127.526 184.504 127.484L184.59 125.095C185.767 125.135 186.962 125.212 188.146 125.314L187.933 127.697ZM166.602 135.618L164.245 135.204C164.43 134.171 164.571 133.039 164.671 131.841L167.054 132.038C166.959 133.296 166.809 134.501 166.612 135.606L166.602 135.618ZM181.07 127.459C179.922 127.482 178.767 127.54 177.641 127.627L177.458 125.241C178.628 125.149 179.827 125.094 181.023 125.066L181.07 127.459ZM156.275 138.501L153.966 139.119C153.595 137.683 153.796 136.159 154.528 134.869L156.642 135.992C156.201 136.746 156.073 137.642 156.285 138.488L156.275 138.501ZM174.236 127.994C173.087 128.146 171.954 128.349 170.866 128.576L170.379 126.232C171.519 125.995 172.706 125.791 173.906 125.623L174.236 127.994ZM158.606 133.705L157.071 131.871C158.031 131.079 159.066 130.384 160.162 129.793L161.314 131.891C160.358 132.402 159.455 133.006 158.616 133.692L158.606 133.705ZM167.556 129.393C166.431 129.719 165.351 130.086 164.347 130.483L163.47 128.255C163.914 128.082 164.372 127.914 164.84 127.749C164.845 126.854 164.828 125.927 164.791 124.99L167.183 124.901C167.223 126.042 167.247 127.189 167.214 128.267L167.556 129.393ZM166.983 121.349L164.598 121.551C164.507 120.434 164.382 119.268 164.241 118.118L166.613 117.822C166.757 118.994 166.881 120.184 166.983 121.349ZM166.105 114.313L163.745 114.7C163.561 113.573 163.351 112.432 163.125 111.298L165.468 110.826C165.699 111.977 165.911 113.148 166.101 114.303L166.105 114.313ZM164.706 107.367L162.382 107.922C162.117 106.814 161.826 105.687 161.519 104.572L163.825 103.936C164.135 105.069 164.419 106.226 164.7 107.354L164.706 107.367ZM162.826 100.541L160.542 101.256C160.2 100.164 159.833 99.0579 159.45 97.9778L161.707 97.1796C162.092 98.2817 162.47 99.4102 162.821 100.532L162.826 100.541ZM160.47 93.8618L158.245 94.7375C157.821 93.6657 157.375 92.5918 156.917 91.5472L159.11 90.5894C159.57 91.6527 160.038 92.7507 160.462 93.8538L160.47 93.8618ZM155.476 88.4136C154.99 87.3746 154.454 86.3469 153.917 85.3394L156.028 84.2152C156.579 85.2511 157.118 86.3118 157.631 87.3733L155.476 88.4136ZM152.24 82.328C151.658 81.3414 151.048 80.3524 150.43 79.3978L152.44 78.0972C153.075 79.0821 153.702 80.098 154.303 81.118L152.24 82.328ZM148.497 76.5488C147.831 75.6132 147.138 74.6863 146.435 73.7951L148.319 72.3176C149.041 73.239 149.756 74.1978 150.428 75.1695L148.497 76.5488ZM144.25 71.1416C143.5 70.2758 142.722 69.4234 141.937 68.6052L143.661 66.9484C144.474 67.7954 145.281 68.6767 146.052 69.579L144.25 71.1416ZM139.485 66.189C138.653 65.4197 137.784 64.6448 136.917 63.9153L138.454 62.0831C139.349 62.8227 140.253 63.6313 141.107 64.4481L139.485 66.189ZM134.227 61.7918C133.312 61.108 132.368 60.4454 131.423 59.8219L132.738 57.8228C133.722 58.4708 134.702 59.1625 135.656 59.8708L134.227 61.7918ZM128.507 58.0244C127.52 57.4514 126.507 56.906 125.494 56.3996L126.562 54.2612C127.621 54.7891 128.675 55.3575 129.702 55.9503L128.507 58.0244ZM122.376 54.9475C121.333 54.5014 120.261 54.0765 119.188 53.6907L120 51.4409C121.115 51.8419 122.233 52.2836 123.317 52.7495L122.376 54.9475ZM115.934 52.6231C114.848 52.3011 113.716 52.0124 112.622 51.745L113.168 49.4148C114.324 49.6885 115.483 49.9952 116.614 50.3308L115.934 52.6231ZM109.261 51.0518C108.147 50.8511 107.003 50.6763 105.868 50.5362L106.165 48.1605C107.342 48.308 108.524 48.4885 109.683 48.695L109.261 51.0518ZM30.5592 86.4601L28.4817 85.274C28.652 84.9779 28.8239 84.685 29.002 84.3891L31.0468 85.6291C30.8859 85.9208 30.7241 86.1936 30.5651 86.4728L30.5592 86.4601ZM32.9372 82.8123L31.008 81.3984C31.6938 80.463 32.4442 79.5167 33.2378 78.5887L35.0571 80.1391C34.308 81.0385 33.5934 81.9372 32.9432 82.825L32.9372 82.8123ZM102.448 50.1951C101.716 50.1514 100.957 50.0975 100.216 50.0816C99.8221 50.0653 99.4341 50.0616 99.0417 50.0485L99.078 47.6521C99.5004 47.6551 99.9195 47.6674 100.329 47.6841C101.111 47.7041 101.884 47.763 102.648 47.8186L102.448 50.1951ZM37.3537 77.5956L35.6327 75.9335C36.4379 75.1044 37.295 74.2626 38.1814 73.4418L39.8077 75.1985C38.9653 76.0141 38.1387 76.8223 37.3656 77.6209L37.3537 77.5956ZM95.6238 50.1237C94.5312 50.199 93.3923 50.3076 92.2178 50.4637L91.9076 48.0945C93.1229 47.9347 94.3183 47.815 95.4595 47.7363L95.6238 50.1237ZM42.3869 72.9204L40.8455 71.0892C41.733 70.3452 42.6613 69.5974 43.6112 68.8628L45.0712 70.7592C44.1619 71.498 43.2576 72.2229 42.3988 72.9457L42.3869 72.9204ZM88.824 51.0028C87.725 51.2047 86.5908 51.4385 85.4496 51.6988L84.9146 49.3692C86.0858 49.0987 87.2578 48.8549 88.3897 48.6491L88.824 51.0028ZM47.8481 68.7053L46.4631 66.7545C47.4082 66.0839 48.3909 65.4111 49.3903 64.7576L50.7101 66.7505C49.7415 67.4205 48.7812 68.0751 47.8599 68.7306L47.8481 68.7053ZM82.1148 52.5618C81.0259 52.8594 79.9066 53.1828 78.7976 53.5284L78.0878 51.2459C79.2267 50.8901 80.3711 50.5626 81.4854 50.2532L82.1148 52.5618ZM53.6376 64.9273L52.3911 62.8846C53.3815 62.2777 54.4094 61.6766 55.44 61.0895L56.6198 63.1712C55.6113 63.7479 54.6057 64.3387 53.636 64.932L53.6376 64.9273ZM75.512 54.6117C74.4352 54.9847 73.339 55.3823 72.2627 55.7976L71.4046 53.5614C72.5092 53.1405 73.6275 52.7326 74.7264 52.3492L75.512 54.6117ZM59.6557 61.5135L58.5378 59.399C59.572 58.8528 60.6327 58.3134 61.6896 57.7991L62.741 59.9447C61.7078 60.4519 60.6693 60.9808 59.6557 61.5135ZM69.0469 57.0876C67.9903 57.5284 66.9221 57.994 65.874 58.4695L64.8876 56.2895C65.952 55.791 67.0465 55.3323 68.1253 54.8811L69.0469 57.0876Z" fill="#010101"/>
<path d="M31.2182 78.6888L30.9954 84.703L36.0262 83.9147L34.0095 92.4572L11.7627 101.31L26.5796 78.7062L31.2182 78.6888Z" fill="#010101"/>
<path d="M49.5683 91.4113L36.0257 83.915L11.6918 101.184L49.5683 91.4113Z" fill="#010101"/>
<path d="M25.0119 64.5076L31.218 78.6889L11.7625 101.31L25.0119 64.5076Z" fill="#010101"/>
</svg>
