<svg width="28" height="28" viewBox="0 0 28 28" fill="none" xmlns="http://www.w3.org/2000/svg">
<path d="M5.49995 15.8417C5.19412 16.2601 4.96648 16.815 4.7868 17.5326C4.18188 19.9485 3.87942 21.1565 4.4869 22.3202C4.6625 22.6566 4.97084 23.0516 5.2545 23.3037C6.2358 24.1756 7.73088 24.1756 10.7211 24.1756H16.9083C19.8985 24.1756 21.3936 24.1756 22.3749 23.3037C22.6585 23.0516 22.9669 22.6566 23.1425 22.3202C23.7499 21.1565 23.4475 19.9485 22.8426 17.5326C22.6629 16.815 22.4352 16.2601 22.1294 15.8417M12.6635 21.5854H14.9659M8.41833 18.6354L8.34638 18.7073M8.41833 18.6354V18.7793M8.41833 18.6354H8.27443M8.34638 18.7073L8.41833 18.7793M8.34638 18.7073L8.27443 18.7793M8.34638 18.7073L8.27443 18.6354M8.41833 18.7793H8.27443M8.27443 18.7793V18.6354M8.41833 21.5134L8.34638 21.5854M8.41833 21.5134V21.6573M8.41833 21.5134H8.27443M8.34638 21.5854L8.41833 21.6573M8.34638 21.5854L8.27443 21.6573M8.34638 21.5854L8.27443 21.5134M8.41833 21.6573H8.27443M8.27443 21.6573V21.5134M13.8866 18.6354L13.8147 18.7073M13.8866 18.6354V18.7793M13.8866 18.6354H13.7427M13.8147 18.7073L13.8866 18.7793M13.8147 18.7073L13.7427 18.7793M13.8147 18.7073L13.7427 18.6354M13.8866 18.7793H13.7427M13.7427 18.7793L13.7427 18.6354M19.3578 18.6354L19.2859 18.7073M19.3578 18.6354V18.7793M19.3578 18.6354H19.2139M19.2859 18.7073L19.3578 18.7793M19.2859 18.7073L19.2139 18.7793M19.2859 18.7073L19.2139 18.6354M19.3578 18.7793H19.2139M19.2139 18.7793V18.6354M19.3578 21.5134L19.2859 21.5854M19.3578 21.5134V21.6573M19.3578 21.5134H19.2139M19.2859 21.5854L19.3578 21.6573M19.2859 21.5854L19.2139 21.6573M19.2859 21.5854L19.2139 21.5134M19.3578 21.6573H19.2139M19.2139 21.6573V21.5134M10.8215 16.1171H16.8079C19.3979 16.1171 20.693 16.1171 21.6008 15.4575C21.894 15.2444 22.1519 14.9866 22.3649 14.6934C23.0245 13.7856 23.0245 12.4905 23.0245 9.90046V9.67021C23.0245 7.08015 23.0245 5.78512 22.3649 4.87727C22.1519 4.58407 21.894 4.32623 21.6008 4.1132C20.693 3.45361 19.3979 3.45361 16.8079 3.45361H10.8215C8.23144 3.45361 6.93641 3.45361 6.02856 4.1132C5.73536 4.32623 5.47752 4.58407 5.2645 4.87727C4.60491 5.78512 4.60491 7.08015 4.60491 9.67021V9.90046C4.60491 12.4905 4.60491 13.7856 5.2645 14.6934C5.47752 14.9866 5.73536 15.2444 6.02856 15.4575C6.93641 16.1171 8.23144 16.1171 10.8215 16.1171Z" stroke="#1C1D1D" stroke-width="1.72683" stroke-linecap="round" stroke-linejoin="round"/>
</svg>
