<svg width="24" height="24" viewBox="0 0 24 24" fill="none" xmlns="http://www.w3.org/2000/svg">
<path fill-rule="evenodd" clip-rule="evenodd" d="M17.293 14.293C17.1108 14.4816 17.01 14.7342 17.0123 14.9964C17.0146 15.2586 17.1198 15.5094 17.3052 15.6948C17.4906 15.8802 17.7414 15.9854 18.0036 15.9876C18.2658 15.9899 18.5184 15.8891 18.707 15.707L21.62 12.794L21.664 12.748C21.77 12.6543 21.8549 12.5392 21.9131 12.4102C21.9712 12.2813 22.0013 12.1414 22.0013 12C22.0013 11.8585 21.9712 11.7186 21.9131 11.5897C21.8549 11.4607 21.77 11.3456 21.664 11.252C21.6498 11.2362 21.6351 11.2209 21.62 11.206L18.707 8.29296C18.6148 8.19745 18.5044 8.12127 18.3824 8.06886C18.2604 8.01645 18.1292 7.98886 17.9964 7.98771C17.8636 7.98655 17.7319 8.01186 17.609 8.06214C17.4862 8.11242 17.3745 8.18667 17.2806 8.28056C17.1867 8.37446 17.1125 8.48611 17.0622 8.60901C17.0119 8.7319 16.9866 8.86358 16.9877 8.99636C16.9889 9.12914 17.0165 9.26036 17.0689 9.38236C17.1213 9.50437 17.1975 9.61471 17.293 9.70696L18.586 11H13C12.7348 11 12.4804 11.1053 12.2929 11.2929C12.1054 11.4804 12 11.7347 12 12C12 12.2652 12.1054 12.5195 12.2929 12.7071C12.4804 12.8946 12.7348 13 13 13H18.586L17.293 14.293Z" fill="black" fill-opacity="0.75"/>
<path fill-rule="evenodd" clip-rule="evenodd" d="M5 2C4.20435 2 3.44129 2.31607 2.87868 2.87868C2.31607 3.44129 2 4.20435 2 5V19C2 19.7956 2.31607 20.5587 2.87868 21.1213C3.44129 21.6839 4.20435 22 5 22H14.5C15.163 22 15.7989 21.7366 16.2678 21.2678C16.7366 20.7989 17 20.163 17 19.5V16.733C16.5406 16.4676 16.2054 16.0306 16.0679 15.5182C15.9305 15.0057 16.0021 14.4597 16.267 14H13C12.4696 14 11.9609 13.7893 11.5858 13.4142C11.2107 13.0391 11 12.5304 11 12C11 11.4696 11.2107 10.9609 11.5858 10.5858C11.9609 10.2107 12.4696 10 13 10H16.267C16.1356 9.77245 16.0503 9.52122 16.016 9.26069C15.9817 9.00015 15.9991 8.73541 16.0671 8.4816C16.1352 8.22779 16.2526 7.98988 16.4127 7.78147C16.5728 7.57307 16.7723 7.39824 17 7.267V4.5C17 3.83696 16.7366 3.20107 16.2678 2.73223C15.7989 2.26339 15.163 2 14.5 2H5Z" fill="black" fill-opacity="0.75"/>
</svg>
