<svg width="34" height="34" viewBox="0 0 34 34" fill="none" xmlns="http://www.w3.org/2000/svg">
<path d="M13.8144 25.5571H19.3403M15.7485 29.0108H17.4063C20.5143 29.0108 22.0684 29.0108 23.1578 28.2193C23.5096 27.9637 23.819 27.6543 24.0747 27.3024C24.8662 26.213 24.8662 24.659 24.8662 21.5509V11.6043C24.8662 8.49625 24.8662 6.94221 24.0747 5.85279C23.819 5.50095 23.5096 5.19154 23.1578 4.93592C22.0684 4.14441 20.5143 4.14441 17.4063 4.14441H15.7485C12.6404 4.14441 11.0864 4.14441 9.99696 4.93592C9.64512 5.19154 9.33571 5.50095 9.08008 5.85279C8.28857 6.94221 8.28857 8.49625 8.28857 11.6043V21.5509C8.28857 24.659 8.28857 26.213 9.08008 27.3024C9.33571 27.6543 9.64512 27.9637 9.99696 28.2193C11.0864 29.0108 12.6404 29.0108 15.7485 29.0108Z" stroke="#1C1D1D" stroke-width="2.0722" stroke-linecap="round" stroke-linejoin="round"/>
<path d="M17.6137 7.25265C17.6137 7.82488 17.1498 8.28875 16.5776 8.28875C16.0054 8.28875 15.5415 7.82488 15.5415 7.25265C15.5415 6.68043 16.0054 6.21655 16.5776 6.21655C17.1498 6.21655 17.6137 6.68043 17.6137 7.25265Z" fill="#1C1D1D"/>
</svg>
