<svg width="24" height="24" viewBox="0 0 24 24" fill="none" xmlns="http://www.w3.org/2000/svg">
<path fill-rule="evenodd" clip-rule="evenodd" d="M14 22H5C4.20435 22 3.44129 21.6839 2.87868 21.1213C2.31607 20.5587 2 19.7956 2 19V5C2 4.20435 2.31607 3.44129 2.87868 2.87868C3.44129 2.31607 4.20435 2 5 2H20C20.7956 2 21.5587 2.31607 22.1213 2.87868C22.6839 3.44129 23 4.20435 23 5V19C23 19.7956 22.6839 20.5587 22.1213 21.1213C21.5587 21.6839 20.7956 22 20 22H14ZM5.17 20C5.06 19.687 5 19.35 5 19V5C5 4.65 5.06 4.313 5.17 4H5C4.73478 4 4.48043 4.10536 4.29289 4.29289C4.10536 4.48043 4 4.73478 4 5V19C4 19.2652 4.10536 19.5196 4.29289 19.7071C4.48043 19.8946 4.73478 20 5 20H5.17ZM9 8.015C8.99974 7.88368 9.02534 7.75359 9.07535 7.63216C9.12537 7.51074 9.19881 7.40035 9.29148 7.30731C9.38415 7.21426 9.49424 7.14038 9.61547 7.08989C9.73669 7.03939 9.86668 7.01326 9.998 7.013L17.998 7C18.2632 6.99947 18.5178 7.10432 18.7057 7.29148C18.8936 7.47864 18.9995 7.73278 19 7.998C19.0005 8.26322 18.8957 8.51778 18.7085 8.70569C18.5214 8.8936 18.2672 8.99947 18.002 9L10.002 9.013C9.87068 9.01326 9.74059 8.98766 9.61916 8.93764C9.49774 8.88763 9.38735 8.81419 9.29431 8.72152C9.20126 8.62885 9.12738 8.51876 9.07689 8.39753C9.02639 8.27631 9.00026 8.14632 9 8.015ZM9 12.027C8.99973 11.762 9.1047 11.5076 9.29183 11.32C9.47896 11.1323 9.73296 11.0265 9.998 11.026L17.998 11.013C18.2632 11.0125 18.5178 11.1173 18.7057 11.3045C18.8936 11.4916 18.9995 11.7458 19 12.011C19.0005 12.2762 18.8957 12.5308 18.7085 12.7187C18.5214 12.9066 18.2672 13.0125 18.002 13.013L10.002 13.026C9.87068 13.0263 9.74059 13.0007 9.61916 12.9506C9.49774 12.9006 9.38735 12.8272 9.29431 12.7345C9.20126 12.6418 9.12738 12.5318 9.07689 12.4105C9.02639 12.2893 9.00026 12.1583 9 12.027ZM9 16.027C8.99973 15.762 9.1047 15.5076 9.29183 15.32C9.47896 15.1323 9.73296 15.0265 9.998 15.026L17.998 15.013C18.2632 15.0125 18.5178 15.1173 18.7057 15.3045C18.8936 15.4916 18.9995 15.7458 19 16.011C19.0005 16.2762 18.8957 16.5308 18.7085 16.7187C18.5214 16.9066 18.2672 17.0125 18.002 17.013L10.002 17.026C9.87068 17.0263 9.74059 17.0007 9.61916 16.9506C9.49774 16.9006 9.38735 16.8272 9.29431 16.7345C9.20126 16.6418 9.12738 16.5318 9.07689 16.4105C9.02639 16.2893 9.00026 16.1583 9 16.027Z" fill="black" fill-opacity="0.5"/>
</svg>
