<svg width="24" height="24" viewBox="0 0 24 24" fill="none" xmlns="http://www.w3.org/2000/svg">
<path fill-rule="evenodd" clip-rule="evenodd" d="M20.774 8.10003C22.384 6.48403 22.315 4.36203 21.113 3.06203C20.8105 2.73498 20.4452 2.47234 20.0388 2.28985C19.6324 2.10737 19.1934 2.00879 18.748 2.00003C17.799 1.97803 16.817 2.34003 15.91 3.09903C15.8867 3.11833 15.8644 3.13868 15.843 3.16003L2.874 16.181C2.31368 16.7438 1.99937 17.5059 2 18.3V19.993C2 21.094 2.892 22 4.004 22H5.683C6.07789 21.9999 6.46887 21.9219 6.83353 21.7704C7.19819 21.6189 7.52934 21.3968 7.808 21.117L20.774 8.10003ZM17.207 5.79303C17.1148 5.69752 17.0044 5.62134 16.8824 5.56893C16.7604 5.51652 16.6292 5.48893 16.4964 5.48778C16.3636 5.48663 16.2319 5.51193 16.109 5.56221C15.9862 5.61249 15.8745 5.68674 15.7806 5.78063C15.6867 5.87453 15.6125 5.98618 15.5622 6.10908C15.5119 6.23197 15.4866 6.36365 15.4878 6.49643C15.4889 6.62921 15.5165 6.76043 15.5689 6.88243C15.6213 7.00444 15.6975 7.11478 15.793 7.20703L16.793 8.20703C16.8852 8.30254 16.9956 8.37872 17.1176 8.43113C17.2396 8.48354 17.3708 8.51113 17.5036 8.51228C17.6364 8.51343 17.7681 8.48813 17.891 8.43785C18.0139 8.38757 18.1255 8.31332 18.2194 8.21942C18.3133 8.12553 18.3875 8.01388 18.4378 7.89098C18.4881 7.76809 18.5134 7.63641 18.5123 7.50363C18.5111 7.37085 18.4835 7.23963 18.4311 7.11763C18.3787 6.99562 18.3025 6.88528 18.207 6.79303L17.207 5.79303Z" fill="black" fill-opacity="0.5"/>
</svg>
