<svg width="23" height="23" viewBox="0 0 23 23" fill="none" xmlns="http://www.w3.org/2000/svg">
<path d="M17.407 7.78197C17.407 8.91738 16.4567 9.8378 15.2845 9.8378C14.1124 9.8378 13.1621 8.91738 13.1621 7.78197C13.1621 6.64657 14.1124 5.72614 15.2845 5.72614C16.4567 5.72614 17.407 6.64657 17.407 7.78197Z" stroke="#1C1D1D" stroke-width="1.72683"/>
<path d="M9.52367 7.78197C9.52367 8.91738 8.57343 9.8378 7.40124 9.8378C6.22906 9.8378 5.27882 8.91738 5.27882 7.78197C5.27882 6.64657 6.22906 5.72614 7.40124 5.72614C8.57343 5.72614 9.52367 6.64657 9.52367 7.78197Z" stroke="#1C1D1D" stroke-width="1.72683"/>
<path d="M10.1301 14.8305C10.1301 15.9659 9.17983 16.8864 8.00765 16.8864C6.83547 16.8864 5.88522 15.9659 5.88522 14.8305C5.88522 13.6951 6.83547 12.7747 8.00765 12.7747C9.17983 12.7747 10.1301 13.6951 10.1301 14.8305Z" stroke="#1C1D1D" stroke-width="1.72683"/>
<path d="M21.5812 8.52962C21.4553 3.30814 13.8635 0.0395671 8.33433 1.04465C2.80521 2.04974 0.130299 7.49794 1.03396 12.7747C1.91256 17.9051 7.70443 21.5854 11.3429 21.5854C14.9813 21.5854 18.0134 19.8233 15.4552 17.7235C14.7435 17.172 14.1638 16.4774 13.7562 15.6878C13.1448 14.5033 14.2511 12.8123 15.6131 12.9286C18.3771 13.1645 21.6793 12.6013 21.5812 8.52962Z" stroke="#1C1D1D" stroke-width="1.72683"/>
</svg>
